<?xml version="1.0" encoding="UTF-8" ?>
<!DOCTYPE svg PUBLIC "-//W3C//DTD SVG 1.1//EN" "http://www.w3.org/Graphics/SVG/1.1/DTD/svg11.dtd">
<svg width="2112pt" height="726pt" viewBox="0 0 2112 726" version="1.1" xmlns="http://www.w3.org/2000/svg">
<g id="#2b2a29ff">
<path fill="#2b2a29" opacity="1.00" d=" M 127.22 3.92 C 141.17 8.25 155.40 12.40 168.08 19.85 C 174.37 23.67 180.58 28.64 183.26 35.73 C 184.80 39.64 184.55 43.94 183.56 47.95 C 189.79 49.10 195.20 53.12 198.49 58.48 C 205.45 69.62 205.34 84.26 199.59 95.88 C 207.24 103.84 214.19 112.76 217.94 123.27 C 215.30 124.26 212.66 125.24 210.02 126.20 C 206.75 117.39 201.15 109.62 194.53 103.02 C 186.71 112.01 174.62 116.06 162.98 116.53 C 152.57 116.83 141.64 115.88 132.39 110.67 C 122.89 105.45 115.86 96.73 110.69 87.37 C 102.84 73.15 98.67 57.35 93.53 42.05 C 92.10 37.82 90.55 33.61 88.42 29.67 C 90.82 28.15 93.28 26.73 95.80 25.41 C 100.69 34.84 103.33 45.20 106.69 55.22 C 111.19 68.75 116.00 82.65 125.22 93.78 C 131.04 100.90 139.38 106.09 148.57 107.31 C 160.35 108.97 173.44 108.64 183.55 101.61 C 195.65 93.27 198.96 75.08 191.19 62.77 C 188.65 58.68 183.95 55.55 178.97 56.39 C 173.78 61.30 166.35 64.92 159.11 63.09 C 155.04 62.00 154.30 56.06 157.82 53.85 C 162.61 50.73 168.43 49.83 173.93 48.69 C 175.57 45.70 176.67 42.08 175.36 38.74 C 173.40 33.72 168.84 30.37 164.46 27.56 C 152.16 20.13 138.19 16.29 124.61 11.94 C 125.47 9.26 126.34 6.59 127.22 3.92 Z" />
<path fill="#2b2a29" opacity="1.00" d=" M 267.26 111.25 C 280.84 104.41 299.18 106.92 309.02 118.98 C 316.72 129.04 322.89 140.47 325.98 152.81 C 330.18 169.29 327.77 186.69 322.76 202.71 C 321.40 207.15 318.42 211.34 313.99 213.09 C 310.77 214.51 307.17 214.28 303.75 214.01 C 314.10 230.07 321.54 247.74 329.89 264.86 C 327.76 266.74 325.61 268.60 323.42 270.42 C 320.04 264.65 317.52 258.45 314.62 252.44 C 307.90 238.28 300.99 224.05 291.68 211.38 C 288.55 206.81 283.23 204.67 279.01 201.32 C 278.20 226.41 280.33 251.48 279.89 276.56 C 277.06 276.26 274.25 275.84 271.45 275.33 C 271.77 259.30 270.70 243.28 270.63 227.26 C 268.02 229.52 265.15 231.52 261.97 232.89 C 251.77 237.30 240.08 239.35 229.27 235.96 C 240.73 260.74 251.40 285.91 260.68 311.59 C 265.70 326.20 271.02 340.72 277.36 354.81 C 272.59 353.52 268.28 356.45 265.97 360.43 C 259.08 345.27 253.45 329.59 248.00 313.87 C 237.23 284.54 224.84 255.80 211.27 227.65 C 209.37 223.32 206.22 219.66 204.92 215.06 C 199.16 203.73 192.98 192.60 186.20 181.85 C 180.41 172.86 174.32 163.92 166.58 156.48 C 159.98 149.76 150.41 147.79 141.90 144.59 C 148.98 162.31 156.33 179.91 163.42 197.62 C 168.75 211.17 174.02 224.81 177.14 239.06 C 181.36 258.06 181.93 277.60 182.63 296.97 C 183.60 333.36 184.57 369.77 184.01 406.17 C 183.95 412.12 183.87 418.07 183.81 424.03 C 183.63 436.99 183.51 449.95 183.39 462.92 C 183.98 462.75 185.15 462.41 185.73 462.24 C 185.10 462.88 184.32 463.25 183.40 463.36 C 183.44 468.74 183.18 474.14 183.44 479.53 L 184.10 480.08 L 184.76 480.21 C 184.55 480.39 184.15 480.73 183.94 480.90 C 182.88 481.91 183.49 483.67 183.29 484.98 C 183.48 521.78 184.17 558.66 188.33 595.25 C 190.64 615.19 193.94 635.10 199.80 654.33 C 200.91 657.15 200.11 660.67 197.47 662.34 C 194.20 664.69 189.01 662.88 187.97 658.98 C 180.72 635.78 177.18 611.60 174.72 587.48 C 169.44 532.52 170.62 477.22 171.07 422.09 C 171.17 418.60 171.21 415.12 171.17 411.64 C 171.35 407.58 171.31 403.53 171.38 399.47 C 159.07 404.69 145.07 402.12 133.25 396.82 C 117.34 389.63 103.51 378.26 92.39 364.89 C 80.60 402.13 78.30 441.94 83.19 480.57 C 88.33 522.33 100.79 562.73 114.33 602.43 C 128.26 643.39 143.76 683.92 154.10 726.00 L 142.53 726.00 C 130.17 676.95 110.96 630.03 95.73 581.88 C 95.35 596.18 93.09 612.77 80.89 622.07 C 85.72 632.75 91.48 643.32 93.26 655.05 C 93.99 660.01 93.49 665.96 89.27 669.31 C 84.96 672.56 78.94 672.67 73.96 671.04 C 67.34 668.77 63.04 662.40 61.33 655.87 C 59.92 650.32 59.58 643.90 62.97 638.98 C 65.51 635.30 66.49 630.89 66.95 626.52 C 57.52 626.71 48.11 624.36 39.64 620.27 C 29.48 615.19 22.77 605.04 19.78 594.32 C 15.16 577.96 16.25 560.65 18.43 544.00 C 21.77 520.63 27.97 497.78 35.14 475.32 C 47.04 438.20 62.04 402.18 77.48 366.42 C 80.78 358.93 83.51 351.16 85.01 343.10 C 87.75 329.15 86.81 314.63 83.10 300.94 C 78.78 284.53 70.98 269.37 64.01 253.98 C 58.94 242.91 54.48 231.36 53.40 219.14 C 50.59 211.72 52.61 203.75 52.75 196.09 C 52.87 179.55 58.26 163.44 66.01 148.98 C 72.35 137.58 80.60 126.64 92.14 120.12 C 100.05 115.58 109.95 114.32 118.54 117.65 C 125.55 120.04 130.69 125.71 137.29 128.88 C 149.12 134.91 163.36 136.39 173.47 145.59 C 184.27 155.25 192.22 167.55 199.86 179.73 C 207.76 176.51 215.88 173.90 223.88 170.95 C 230.01 168.62 236.39 165.78 240.44 160.38 C 245.49 153.65 246.82 145.08 248.11 136.98 C 249.80 125.95 257.17 116.02 267.26 111.25 M 270.90 118.89 C 262.75 122.72 257.15 130.99 256.19 139.89 C 254.60 151.92 250.75 165.01 240.21 172.20 C 229.34 179.42 216.29 182.04 204.37 186.99 C 210.22 198.04 216.39 208.96 221.76 220.27 C 222.66 221.88 223.18 223.97 224.99 224.84 C 231.84 228.80 240.17 230.30 247.92 228.46 C 254.60 226.96 261.85 224.90 266.35 219.38 C 270.38 214.15 269.67 207.11 269.02 200.96 C 268.09 194.01 268.02 186.99 268.13 180.00 C 272.36 184.02 276.23 188.49 280.96 191.95 C 284.45 193.71 288.16 195.24 290.96 198.08 C 295.16 202.42 300.98 205.03 306.93 205.76 C 310.12 206.30 313.34 204.37 314.28 201.27 C 318.29 189.03 320.69 175.98 319.25 163.09 C 317.69 148.92 311.08 135.78 302.61 124.51 C 295.15 115.31 281.15 113.71 270.90 118.89 M 83.32 145.34 C 74.63 157.35 68.94 171.40 66.17 185.93 C 70.48 180.95 75.65 176.81 81.00 173.01 C 96.01 162.56 112.88 155.20 129.78 148.42 C 127.98 144.47 126.74 140.26 124.82 136.38 C 119.50 132.13 113.31 127.52 106.06 128.58 C 96.29 130.11 88.99 137.78 83.32 145.34 M 118.11 162.39 C 118.41 163.88 118.86 165.40 118.58 166.94 C 117.37 175.90 115.98 184.92 116.31 193.98 C 123.20 203.31 128.87 213.49 134.09 223.83 C 142.76 226.72 151.93 227.61 161.02 227.99 C 152.97 203.65 142.36 180.27 132.99 156.43 C 127.92 158.13 123.06 160.39 118.11 162.39 M 76.48 187.45 C 72.00 191.67 67.74 196.43 65.33 202.17 C 64.32 206.40 64.78 210.79 64.73 215.09 C 64.65 217.06 62.92 218.31 62.14 219.99 C 63.25 232.72 69.02 244.38 74.18 255.87 C 82.44 273.54 90.93 291.50 93.85 310.96 C 94.80 316.34 94.82 321.81 95.34 327.24 C 101.93 312.23 111.30 298.68 119.71 284.67 C 124.66 276.45 129.38 267.64 130.26 257.91 C 131.18 248.13 128.18 238.50 124.26 229.65 C 123.21 227.19 120.46 226.19 118.69 224.34 C 111.53 217.95 108.83 208.22 107.77 199.02 C 107.48 187.99 108.44 176.97 110.18 166.09 C 98.20 171.88 86.36 178.42 76.48 187.45 M 137.96 233.75 C 140.78 242.12 142.38 251.06 141.34 259.90 C 139.61 275.67 130.23 288.96 122.14 302.11 C 112.11 317.83 103.31 334.38 96.83 351.90 C 104.54 363.39 115.02 372.91 126.56 380.46 C 136.23 386.50 147.30 391.68 158.97 391.03 C 163.45 390.99 167.32 388.63 171.45 387.29 C 171.59 357.51 170.69 327.73 169.96 297.96 C 169.18 277.41 168.75 256.57 163.45 236.57 C 154.90 236.25 146.32 235.65 137.96 233.75 M 72.71 398.82 C 63.44 422.03 53.99 445.21 46.14 468.96 C 37.16 496.03 29.18 523.66 25.97 552.08 C 24.60 566.35 24.11 581.22 28.89 594.95 C 31.80 603.54 38.17 611.22 46.89 614.26 C 55.06 617.16 64.27 619.72 72.77 616.66 C 79.76 614.05 83.31 606.71 85.03 599.92 C 88.55 585.57 87.33 570.65 87.01 556.04 C 87.03 552.29 85.68 548.77 84.76 545.20 C 77.70 518.97 72.37 492.19 70.39 465.07 C 68.62 442.97 69.72 420.75 72.71 398.82 Z" />
<path fill="#2b2a29" opacity="1.00" d=" M 274.08 377.42 C 277.09 373.77 280.13 370.12 282.70 366.14 C 286.22 373.49 290.17 380.62 294.24 387.68 C 291.48 391.19 288.55 394.58 285.53 397.87 C 281.53 391.16 277.69 384.35 274.08 377.42 Z" />
<path fill="#2b2a29" opacity="1.00" d=" M 295.11 412.40 C 298.12 409.26 301.03 406.03 303.84 402.72 C 324.54 433.13 352.56 458.25 384.42 476.51 C 393.38 481.77 402.66 486.44 412.05 490.87 C 415.34 492.13 417.05 496.24 415.49 499.43 C 414.07 502.71 409.75 504.10 406.65 502.34 C 389.13 494.24 372.21 484.78 356.42 473.66 C 332.65 456.98 311.80 436.17 295.11 412.40 Z" />
</g>
<g id="#10529dff">
<path fill="#10529d" opacity="1.00" d=" M 360.55 91.24 C 425.68 90.98 490.82 91.20 555.96 91.13 C 588.45 91.18 620.96 91.03 653.45 91.20 C 655.23 103.48 657.22 115.72 659.06 127.99 C 637.45 122.89 615.24 120.68 593.06 120.63 C 574.02 120.61 554.99 120.62 535.95 120.63 C 535.94 207.76 535.95 294.89 535.95 382.02 C 535.96 405.95 535.58 430.21 541.02 453.68 C 518.35 453.67 495.68 453.65 473.01 453.68 C 477.84 432.84 478.10 411.30 478.08 390.01 C 478.08 300.22 478.09 210.42 478.08 120.63 C 462.06 120.61 446.03 120.63 430.01 120.62 C 404.92 120.53 379.64 121.33 354.97 126.30 C 356.80 114.61 358.82 102.94 360.55 91.24 Z" />
<path fill="#10529d" opacity="1.00" d=" M 1686.57 91.12 C 1704.15 91.13 1721.73 91.13 1739.32 91.13 C 1739.33 176.07 1739.32 261.01 1739.32 345.96 C 1739.39 366.67 1739.16 387.39 1739.46 408.11 C 1739.90 423.37 1740.83 438.74 1744.41 453.63 C 1725.13 453.70 1705.85 453.69 1686.57 453.63 C 1691.32 433.45 1691.63 412.57 1691.67 391.94 C 1691.59 307.39 1691.80 222.84 1691.56 138.29 C 1691.17 122.48 1690.23 106.56 1686.57 91.12 Z" />
<path fill="#10529d" opacity="1.00" d=" M 1575.93 115.54 C 1591.80 115.51 1607.67 115.55 1623.55 115.52 C 1623.64 128.34 1623.51 141.17 1623.61 153.99 C 1607.72 154.26 1591.82 154.04 1575.93 154.10 C 1575.91 141.25 1575.92 128.39 1575.93 115.54 Z" />
<path fill="#10529d" opacity="1.00" d=" M 1343.30 134.25 C 1359.20 131.25 1375.08 128.15 1390.98 125.21 C 1390.93 145.81 1390.96 166.41 1390.97 187.01 C 1435.22 187.04 1479.48 186.98 1523.74 187.04 C 1523.72 195.69 1523.68 204.34 1523.76 212.99 C 1479.49 213.26 1435.23 213.03 1390.96 213.11 C 1390.95 271.40 1390.96 329.70 1390.96 387.99 C 1391.17 398.35 1390.08 409.16 1393.83 419.05 C 1396.33 425.46 1403.95 426.87 1410.03 427.36 C 1420.01 427.82 1430.03 427.46 1440.03 427.58 C 1472.46 427.03 1505.42 429.68 1537.33 422.49 C 1535.95 432.89 1534.79 443.33 1533.27 453.71 C 1492.84 453.61 1452.40 453.71 1411.96 453.66 C 1400.35 453.58 1388.61 452.76 1377.41 449.48 C 1370.14 447.30 1362.97 443.97 1357.61 438.46 C 1352.17 432.83 1349.02 425.43 1346.99 417.97 C 1344.05 406.90 1343.33 395.38 1343.31 383.98 C 1343.30 327.02 1343.31 270.07 1343.30 213.11 C 1329.49 213.10 1315.69 213.12 1301.89 213.10 C 1301.87 204.41 1301.88 195.72 1301.89 187.02 C 1315.69 187.00 1329.49 187.03 1343.30 187.01 C 1343.31 169.42 1343.30 151.84 1343.30 134.25 Z" />
<path fill="#10529d" opacity="1.00" d=" M 705.11 193.90 C 723.64 185.90 744.29 187.11 764.02 187.02 C 811.69 187.02 859.36 187.02 907.02 187.02 C 918.79 187.03 930.69 187.81 942.06 191.02 C 952.10 193.81 962.04 199.29 967.34 208.61 C 974.87 221.68 976.27 237.20 976.73 251.98 C 976.86 280.25 976.76 308.52 976.79 336.79 C 893.05 336.77 809.31 336.85 725.58 336.75 C 725.28 355.81 725.54 374.88 725.45 393.95 C 725.48 401.69 725.32 409.63 727.61 417.12 C 728.51 420.23 730.40 423.21 733.41 424.64 C 738.82 427.39 745.08 427.51 751.03 427.58 C 807.38 427.57 863.73 427.59 920.08 427.57 C 939.06 427.45 958.22 426.82 976.78 422.50 C 975.06 432.07 973.27 441.63 971.59 451.22 C 971.27 452.11 971.49 454.15 969.90 453.68 C 895.94 453.66 821.97 453.68 748.01 453.67 C 734.45 453.62 720.61 452.77 707.76 448.10 C 698.41 444.86 689.96 438.41 685.72 429.31 C 677.90 413.11 677.74 394.61 677.79 377.00 C 677.79 342.99 677.79 308.98 677.79 274.97 C 677.93 254.78 676.48 233.66 684.54 214.63 C 688.32 205.33 695.81 197.71 705.11 193.90 M 729.33 220.43 C 725.79 226.97 725.64 234.66 725.46 241.92 C 725.43 264.85 725.46 287.77 725.45 310.70 C 793.34 310.71 861.23 310.70 929.12 310.70 C 929.14 288.15 929.13 265.59 929.13 243.03 C 929.05 236.34 928.91 229.49 926.81 223.06 C 925.87 220.07 923.91 217.32 921.02 215.96 C 915.44 213.23 909.04 213.15 902.96 213.10 C 851.30 213.14 799.64 213.05 747.98 213.15 C 741.35 213.46 733.20 214.23 729.33 220.43 Z" />
<path fill="#10529d" opacity="1.00" d=" M 998.36 187.03 C 1021.23 187.00 1044.10 187.01 1066.97 187.03 C 1071.65 195.70 1077.69 203.54 1083.70 211.31 C 1104.99 238.58 1128.56 263.94 1151.01 290.24 C 1164.07 277.23 1176.54 263.61 1189.37 250.37 C 1203.83 235.14 1218.55 220.17 1232.64 204.60 C 1237.54 199.55 1241.30 193.49 1244.04 187.03 C 1260.09 187.01 1276.13 187.02 1292.18 187.02 C 1278.83 200.05 1265.36 212.95 1251.97 225.94 C 1238.22 238.87 1225.61 252.93 1212.47 266.46 C 1198.08 281.53 1183.68 296.58 1169.31 311.65 C 1194.61 341.40 1219.74 371.29 1245.13 400.96 C 1257.34 415.03 1269.56 429.15 1283.12 441.95 C 1287.07 445.94 1291.49 449.46 1295.26 453.63 C 1270.62 453.72 1245.98 453.64 1221.33 453.67 C 1217.13 442.96 1211.80 432.55 1204.24 423.80 C 1181.66 397.88 1159.28 371.79 1136.58 345.99 C 1110.89 373.77 1084.64 401.04 1059.11 428.97 C 1052.61 436.28 1047.02 444.47 1043.30 453.55 C 1025.49 453.83 1007.68 453.58 989.87 453.68 C 1000.43 444.64 1011.07 435.69 1021.27 426.24 C 1037.06 411.69 1051.12 395.44 1065.92 379.92 C 1083.45 361.23 1101.00 342.55 1118.52 323.84 C 1089.10 289.51 1059.66 255.20 1030.22 220.89 C 1020.11 209.13 1008.26 198.98 998.36 187.03 Z" />
<path fill="#10529d" opacity="1.00" d=" M 1570.84 187.02 C 1588.42 187.04 1606.01 186.97 1623.60 187.06 C 1623.54 244.70 1623.59 302.35 1623.58 359.99 C 1624.04 391.22 1621.68 422.95 1628.66 453.67 C 1609.42 453.68 1590.17 453.65 1570.93 453.68 C 1575.71 432.14 1576.00 409.97 1575.92 388.01 C 1575.92 353.01 1575.92 318.01 1575.92 283.01 C 1575.40 251.01 1577.95 218.50 1570.84 187.02 Z" />
<path fill="#10529d" opacity="1.00" d=" M 1826.91 191.15 C 1838.93 187.63 1851.56 186.98 1864.02 187.02 C 1917.34 187.03 1970.67 186.99 2023.99 187.03 C 2035.47 187.19 2047.09 188.13 2058.11 191.56 C 2065.66 193.93 2073.06 197.71 2078.24 203.85 C 2083.49 210.11 2086.35 217.98 2088.17 225.84 C 2090.55 236.38 2091.10 247.23 2091.08 258.00 C 2091.08 284.26 2091.08 310.53 2091.08 336.79 C 2007.30 336.80 1923.52 336.78 1839.75 336.80 C 1839.73 352.53 1839.74 368.26 1839.74 383.99 C 1840.01 395.05 1838.78 406.41 1841.91 417.18 C 1842.91 421.01 1845.76 424.26 1849.57 425.50 C 1857.71 428.41 1866.52 427.36 1875.00 427.58 C 1931.54 427.50 1988.08 427.73 2044.62 427.46 C 2060.19 427.06 2075.85 426.06 2091.07 422.52 C 2089.19 432.90 2087.28 443.27 2085.42 453.65 C 2011.64 453.69 1937.86 453.65 1864.08 453.67 C 1851.98 453.71 1839.75 453.12 1828.01 450.00 C 1820.58 447.96 1813.22 444.86 1807.52 439.55 C 1801.86 434.29 1798.46 427.08 1796.29 419.78 C 1792.80 407.86 1792.09 395.35 1792.08 383.00 C 1792.08 341.33 1792.08 299.67 1792.08 258.00 C 1792.06 246.60 1792.71 235.08 1795.62 224.01 C 1797.68 216.20 1801.00 208.48 1806.64 202.56 C 1812.09 196.86 1819.43 193.38 1826.91 191.15 M 1848.20 216.11 C 1843.19 218.61 1841.52 224.43 1840.66 229.52 C 1839.14 239.58 1839.94 249.79 1839.74 259.93 C 1839.81 276.87 1839.59 293.81 1839.85 310.75 C 1907.73 310.59 1975.60 310.86 2043.48 310.61 C 2043.30 286.43 2043.57 262.25 2043.34 238.08 C 2042.87 231.42 2042.77 224.02 2038.60 218.45 C 2033.79 213.60 2026.39 213.39 2019.99 213.13 C 1971.33 213.07 1922.66 213.12 1874.00 213.11 C 1865.39 213.32 1856.17 212.13 1848.20 216.11 Z" />
</g>
<g id="#00a0e3ff">
<path fill="#00a0e3" opacity="1.00" d=" M 265.97 360.43 C 268.28 356.45 272.59 353.52 277.36 354.81 C 281.73 356.64 284.24 361.55 282.70 366.14 C 280.13 370.12 277.09 373.77 274.08 377.42 C 266.33 386.61 257.39 395.06 246.63 400.63 C 239.79 404.29 232.30 406.47 224.95 408.87 C 214.46 412.00 204.01 415.42 194.12 420.16 C 190.83 421.81 187.32 422.95 183.81 424.03 C 183.87 418.07 183.95 412.12 184.01 406.17 C 199.15 398.49 215.65 394.31 231.61 388.79 C 246.05 383.78 256.96 372.33 265.97 360.43 Z" />
<path fill="#00a0e3" opacity="1.00" d=" M 294.24 387.68 C 296.60 384.72 298.77 380.74 302.96 380.31 C 309.11 379.11 314.65 386.13 312.01 391.83 C 309.85 395.84 306.63 399.15 303.84 402.72 C 301.03 406.03 298.12 409.26 295.11 412.40 C 270.93 437.65 239.87 454.67 208.74 469.79 C 200.81 473.39 193.31 478.17 184.76 480.21 L 184.10 480.08 L 183.44 479.53 C 183.18 474.14 183.44 468.74 183.40 463.36 C 184.32 463.25 185.10 462.88 185.73 462.24 C 201.12 454.52 216.74 447.26 231.74 438.80 C 251.44 427.75 270.18 414.56 285.53 397.87 C 288.55 394.58 291.48 391.19 294.24 387.68 Z" />
<path fill="#00a0e3" opacity="1.00" d=" M 171.17 411.64 C 171.21 415.12 171.17 418.60 171.07 422.09 C 169.28 418.76 169.35 414.94 171.17 411.64 Z" />
</g>
<g id="#e31e24ff">
<path fill="#e31e24" opacity="1.00" d=" M 1462.69 519.61 C 1472.14 505.49 1490.64 498.49 1507.14 502.13 C 1517.67 504.34 1527.53 510.29 1533.73 519.19 C 1539.26 526.66 1541.35 536.14 1541.14 545.32 C 1546.57 545.32 1552.01 545.29 1557.45 545.33 C 1566.36 568.84 1575.09 592.42 1584.17 615.86 C 1592.98 592.35 1601.85 568.86 1610.65 545.34 C 1616.59 545.30 1622.55 545.30 1628.51 545.34 C 1617.83 573.38 1607.32 601.48 1596.67 629.53 C 1594.46 635.73 1587.28 639.24 1580.97 637.88 C 1576.65 637.04 1572.78 633.99 1571.22 629.84 C 1561.02 603.24 1551.24 576.47 1540.83 549.95 C 1538.91 566.96 1525.95 583.30 1508.44 585.66 C 1498.89 586.10 1489.32 585.74 1479.77 585.85 C 1479.76 580.30 1479.76 574.74 1479.78 569.19 C 1486.51 569.17 1493.25 569.22 1500.00 569.17 C 1505.58 569.08 1511.58 567.76 1515.66 563.68 C 1524.93 553.55 1526.09 536.50 1517.25 525.75 C 1510.31 517.34 1497.93 516.38 1488.08 519.23 C 1481.83 521.00 1477.64 526.48 1475.44 532.33 C 1471.98 540.10 1472.80 548.76 1472.72 557.04 C 1472.72 583.44 1472.72 609.85 1472.72 636.26 C 1466.78 636.26 1460.85 636.27 1454.92 636.26 C 1454.91 606.48 1454.92 576.70 1454.91 546.92 C 1454.71 537.31 1457.10 527.52 1462.69 519.61 Z" />
<path fill="#e31e24" opacity="1.00" d=" M 1006.25 503.42 C 1012.31 503.43 1018.37 503.40 1024.43 503.44 C 1024.41 547.71 1024.44 591.99 1024.42 636.26 C 1018.35 636.23 1012.28 636.34 1006.21 636.20 C 1006.28 591.94 1006.21 547.68 1006.25 503.42 Z" />
<path fill="#e31e24" opacity="1.00" d=" M 1806.04 503.39 C 1811.81 503.47 1817.59 503.39 1823.38 503.44 C 1823.39 532.32 1823.32 561.20 1823.41 590.08 C 1823.98 597.88 1825.06 606.43 1830.49 612.50 C 1835.12 617.65 1842.29 619.40 1848.98 619.54 C 1855.29 619.64 1861.61 619.54 1867.93 619.58 C 1867.93 625.14 1867.93 630.70 1867.93 636.26 C 1855.90 635.72 1843.32 638.00 1831.83 633.41 C 1823.07 630.30 1815.75 623.76 1811.14 615.77 C 1807.33 608.85 1805.77 600.85 1805.93 593.00 C 1806.02 563.13 1805.80 533.26 1806.04 503.39 Z" />
<path fill="#e31e24" opacity="1.00" d=" M 468.23 525.20 C 480.06 511.88 497.71 505.36 515.09 503.66 C 521.40 503.22 527.74 503.49 534.06 503.43 C 534.07 508.99 534.07 514.54 534.06 520.10 C 523.92 520.07 513.56 519.62 503.78 522.82 C 487.29 527.83 472.04 541.20 469.63 558.94 C 491.11 558.97 512.58 558.94 534.06 558.96 C 534.07 564.64 534.07 570.31 534.06 576.00 C 512.59 576.01 491.12 575.98 469.65 576.01 C 470.90 588.90 477.42 601.33 487.74 609.26 C 495.95 615.90 506.48 619.39 516.99 619.58 C 522.68 619.59 528.37 619.56 534.06 619.59 C 534.07 625.14 534.07 630.70 534.06 636.26 C 524.68 636.09 515.19 636.89 505.91 635.10 C 487.92 631.74 471.18 621.06 461.24 605.59 C 454.93 595.95 451.50 584.55 451.14 573.04 C 450.94 555.82 455.79 537.69 468.23 525.20 Z" />
<path fill="#e31e24" opacity="1.00" d=" M 1212.57 503.82 C 1218.12 503.81 1223.67 503.81 1229.23 503.82 C 1229.25 532.22 1229.22 560.62 1229.24 589.02 C 1229.84 604.42 1222.78 620.06 1210.50 629.46 C 1200.70 637.53 1187.21 639.73 1174.92 637.91 C 1165.90 636.73 1157.33 632.56 1150.79 626.26 C 1137.70 613.07 1132.79 592.39 1138.87 574.78 C 1144.00 558.16 1159.46 544.75 1177.08 543.83 C 1186.94 543.81 1197.40 544.70 1205.98 550.03 C 1205.93 555.95 1205.96 561.88 1205.97 567.82 C 1198.32 562.69 1189.20 559.75 1179.98 559.72 C 1169.83 560.21 1160.16 566.54 1155.72 575.68 C 1152.05 583.52 1152.00 592.66 1153.95 600.98 C 1155.51 607.70 1159.85 613.58 1165.54 617.42 C 1175.71 623.99 1190.19 624.72 1199.98 617.02 C 1208.99 610.00 1212.37 598.07 1212.54 587.07 C 1212.60 559.32 1212.53 531.57 1212.57 503.82 Z" />
<path fill="#e31e24" opacity="1.00" d=" M 2011.89 503.82 C 2017.41 503.79 2022.94 503.85 2028.48 503.78 C 2028.66 529.17 2028.50 554.57 2028.56 579.97 C 2028.41 588.35 2029.34 597.00 2026.43 605.06 C 2022.14 619.70 2010.56 632.50 1995.70 636.72 C 1983.59 639.91 1970.02 638.99 1958.99 632.82 C 1945.53 625.54 1937.68 610.73 1935.81 595.92 C 1934.21 579.35 1940.92 561.56 1954.73 551.77 C 1961.98 546.51 1970.95 543.32 1979.97 543.84 C 1988.67 544.12 1997.73 545.32 2005.28 549.99 C 2005.28 555.93 2005.27 561.87 2005.29 567.81 C 1997.55 562.65 1988.33 559.67 1979.01 559.73 C 1968.91 560.33 1959.32 566.70 1954.97 575.85 C 1951.88 582.46 1951.49 590.04 1952.51 597.17 C 1953.30 602.79 1955.44 608.33 1959.33 612.55 C 1969.25 623.90 1988.61 626.29 2000.26 616.24 C 2008.60 609.07 2011.70 597.62 2011.86 586.98 C 2011.91 559.26 2011.85 531.54 2011.89 503.82 Z" />
<path fill="#e31e24" opacity="1.00" d=" M 1259.38 515.44 C 1263.99 513.54 1269.63 515.89 1271.78 520.33 C 1273.86 524.70 1272.78 530.79 1268.47 533.42 C 1263.21 536.89 1255.22 533.93 1253.40 527.93 C 1251.63 523.01 1254.58 517.26 1259.38 515.44 Z" />
<path fill="#e31e24" opacity="1.00" d=" M 889.87 522.19 C 895.36 522.18 900.85 522.19 906.34 522.19 C 906.42 529.92 906.21 537.64 906.45 545.37 C 917.27 545.24 928.10 545.36 938.92 545.30 C 938.95 550.60 938.93 555.91 938.94 561.21 C 928.07 561.23 917.21 561.21 906.35 561.22 C 906.36 577.86 906.32 594.49 906.37 611.13 C 906.27 616.26 911.25 620.06 916.09 620.22 C 923.69 620.52 931.31 620.27 938.92 620.34 C 938.95 625.64 938.93 630.95 938.94 636.26 C 930.63 636.17 922.31 636.48 914.01 636.08 C 905.44 635.57 896.83 630.88 893.09 622.93 C 889.68 616.13 889.72 608.38 889.86 600.96 C 889.87 574.71 889.85 548.45 889.87 522.19 Z" />
<path fill="#e31e24" opacity="1.00" d=" M 1637.05 522.18 C 1642.54 522.20 1648.03 522.17 1653.53 522.20 C 1653.52 529.90 1653.52 537.61 1653.54 545.31 C 1664.37 545.31 1675.21 545.33 1686.06 545.30 C 1686.18 550.60 1686.09 555.91 1686.11 561.21 C 1675.26 561.22 1664.40 561.23 1653.55 561.20 C 1653.51 577.78 1653.52 594.36 1653.55 610.94 C 1653.33 616.09 1658.25 619.98 1663.10 620.20 C 1670.73 620.53 1678.40 620.27 1686.05 620.33 C 1686.19 625.64 1686.09 630.95 1686.11 636.26 C 1678.43 636.23 1670.74 636.35 1663.07 636.20 C 1655.69 636.04 1648.10 633.31 1643.27 627.54 C 1638.54 621.88 1636.99 614.23 1637.04 607.02 C 1637.05 578.74 1637.03 550.46 1637.05 522.18 Z" />
<path fill="#e31e24" opacity="1.00" d=" M 1878.68 522.19 C 1884.16 522.19 1889.65 522.18 1895.15 522.19 C 1895.15 529.90 1895.15 537.60 1895.16 545.31 C 1906.01 545.32 1916.88 545.31 1927.74 545.32 C 1927.75 550.59 1927.71 555.87 1927.77 561.15 C 1916.90 561.31 1906.03 561.17 1895.16 561.22 C 1895.16 577.83 1895.13 594.44 1895.18 611.06 C 1895.03 616.27 1900.11 620.11 1905.02 620.23 C 1912.58 620.51 1920.16 620.26 1927.74 620.35 C 1927.75 625.64 1927.73 630.94 1927.76 636.24 C 1919.85 636.23 1911.94 636.38 1904.04 636.17 C 1896.29 635.90 1888.36 632.60 1883.80 626.13 C 1879.52 620.03 1878.45 612.31 1878.66 605.03 C 1878.68 577.41 1878.66 549.80 1878.68 522.19 Z" />
<path fill="#e31e24" opacity="1.00" d=" M 1074.84 544.28 C 1091.78 539.83 1111.15 548.59 1119.08 564.20 C 1122.00 569.97 1122.96 576.53 1122.93 582.94 C 1122.93 600.71 1122.93 618.49 1122.93 636.26 C 1117.36 636.25 1111.79 636.32 1106.23 636.21 C 1106.29 619.45 1106.23 602.68 1106.26 585.92 C 1106.43 580.69 1105.93 575.24 1103.22 570.65 C 1099.33 563.37 1091.29 558.50 1082.98 558.98 C 1071.95 559.17 1062.18 568.99 1061.97 580.00 C 1061.84 598.75 1061.96 617.50 1061.92 636.26 C 1056.23 636.27 1050.55 636.27 1044.87 636.26 C 1044.85 619.84 1044.87 603.43 1044.86 587.02 C 1044.79 580.92 1044.68 574.65 1046.84 568.83 C 1051.08 556.49 1062.26 547.23 1074.84 544.28 Z" />
<path fill="#e31e24" opacity="1.00" d=" M 632.24 561.23 C 640.52 549.63 654.88 543.16 669.00 543.43 C 679.13 543.43 689.57 546.10 697.51 552.63 C 708.76 561.11 715.13 575.07 715.73 588.98 C 715.97 603.96 710.49 619.96 698.11 629.13 C 683.38 640.31 662.09 640.85 646.27 631.60 C 646.22 625.76 646.25 619.93 646.25 614.10 C 653.32 617.24 660.07 621.96 668.06 622.18 C 675.87 622.70 684.07 620.29 689.70 614.69 C 698.19 606.39 700.62 593.34 698.18 582.03 C 695.43 569.50 683.74 559.84 671.00 559.05 C 661.06 558.16 650.97 563.34 645.70 571.79 C 640.50 579.42 639.32 588.95 639.58 597.98 C 639.62 624.30 639.53 650.62 639.62 676.94 C 634.05 677.06 628.48 676.97 622.91 677.00 C 622.90 648.69 622.91 620.39 622.91 592.09 C 622.96 581.20 625.77 570.12 632.24 561.23 Z" />
<path fill="#e31e24" opacity="1.00" d=" M 764.14 544.29 C 774.82 542.10 786.08 544.35 795.74 549.18 C 808.35 555.43 817.94 567.86 819.88 581.90 C 821.98 594.61 818.72 607.94 811.54 618.56 C 804.97 628.04 794.90 635.35 783.42 637.34 C 767.23 640.21 749.50 634.84 738.24 622.69 C 730.43 614.46 725.94 603.29 725.49 591.99 C 725.91 586.35 726.33 580.62 728.28 575.27 C 733.75 559.62 747.97 547.63 764.14 544.29 M 768.53 559.68 C 761.52 560.49 754.96 564.06 750.43 569.46 C 740.08 581.92 741.38 601.38 751.46 613.61 C 755.96 619.05 763.07 621.58 769.95 622.08 C 777.98 622.75 786.75 621.41 793.04 616.02 C 799.59 610.31 802.25 601.45 802.74 593.03 C 803.61 583.69 800.88 573.63 793.87 567.11 C 787.28 560.65 777.49 558.37 768.53 559.68 Z" />
<path fill="#e31e24" opacity="1.00" d=" M 850.53 555.84 C 854.26 550.11 860.14 545.73 866.85 544.23 C 870.95 543.23 875.19 543.40 879.38 543.42 C 879.38 548.71 879.38 554.01 879.37 559.32 C 872.17 558.93 863.92 559.91 859.10 565.92 C 853.71 573.05 851.18 582.15 851.35 591.03 C 851.37 606.11 851.37 621.18 851.36 636.26 C 845.80 636.26 840.25 636.27 834.70 636.26 C 834.68 605.95 834.69 575.63 834.69 545.32 C 839.98 545.31 845.28 545.31 850.57 545.32 C 850.57 548.82 850.60 552.33 850.53 555.84 Z" />
<path fill="#e31e24" opacity="1.00" d=" M 1324.74 545.76 C 1341.54 541.04 1361.59 542.95 1374.84 555.18 C 1383.01 562.78 1387.32 573.98 1387.26 585.05 C 1387.27 602.12 1387.27 619.19 1387.26 636.26 C 1381.58 636.27 1375.90 636.26 1370.22 636.26 C 1370.22 619.49 1370.20 602.72 1370.23 585.95 C 1370.37 580.69 1369.00 575.37 1366.01 571.02 C 1361.35 564.08 1353.12 560.33 1344.98 559.57 C 1334.82 558.34 1323.67 561.75 1317.18 569.95 C 1311.97 575.97 1310.27 584.22 1310.57 592.00 C 1310.79 598.50 1312.78 605.01 1316.69 610.27 C 1323.53 619.89 1336.73 624.61 1348.06 621.04 C 1354.36 619.16 1359.26 614.54 1363.61 609.80 C 1363.61 616.41 1363.61 623.02 1363.60 629.64 C 1358.23 633.11 1352.65 636.67 1346.16 637.49 C 1330.23 640.47 1313.32 633.21 1303.71 620.35 C 1292.74 606.26 1291.08 586.16 1297.81 569.87 C 1302.47 558.25 1312.79 549.31 1324.74 545.76 Z" />
<path fill="#e31e24" opacity="1.00" d=" M 1254.41 545.32 C 1259.96 545.31 1265.51 545.31 1271.07 545.32 C 1271.08 575.63 1271.08 605.95 1271.07 636.26 C 1265.54 636.29 1260.02 636.21 1254.51 636.31 C 1254.27 605.98 1254.47 575.65 1254.41 545.32 Z" />
<path fill="#e31e24" opacity="1.00" d=" M 542.98 545.48 C 552.13 545.48 561.30 548.68 568.17 554.79 C 572.34 558.36 575.48 562.95 578.08 567.74 C 583.44 553.25 599.30 545.49 614.06 545.29 C 614.02 550.56 614.16 555.84 614.01 561.11 C 608.35 562.38 602.30 563.83 597.69 567.75 C 584.26 577.61 582.56 599.87 594.65 611.43 C 599.71 616.72 606.87 619.62 614.06 620.45 C 614.07 625.72 614.07 631.00 614.06 636.28 C 606.78 636.15 599.14 635.23 592.91 631.17 C 586.90 626.98 581.90 621.41 578.07 615.18 C 574.96 621.36 570.44 626.97 564.45 630.54 C 558.04 634.50 550.47 636.22 542.98 636.29 C 542.99 630.98 542.93 625.68 543.03 620.38 C 557.08 620.39 568.05 607.40 569.67 594.16 C 571.76 578.49 559.41 561.77 543.10 561.44 C 542.84 556.12 543.03 550.79 542.98 545.48 Z" />
<path fill="#e31e24" opacity="1.00" d=" M 1711.55 615.69 C 1718.17 613.53 1726.59 618.57 1726.09 625.97 C 1726.45 632.38 1720.42 637.99 1714.07 637.37 C 1706.96 637.15 1702.00 628.94 1704.62 622.45 C 1705.74 619.31 1708.34 616.68 1711.55 615.69 Z" />
<path fill="#e31e24" opacity="1.00" d=" M 2058.51 615.75 C 2064.82 613.61 2073.06 617.97 2073.21 625.06 C 2074.11 631.85 2067.77 638.17 2061.00 637.36 C 2054.24 637.00 2049.45 629.41 2051.55 623.08 C 2052.52 619.72 2055.17 616.85 2058.51 615.75 Z" />
</g>
</svg>
